<?xml version="1.0" encoding="UTF-8"?>
<!-- Generated by Pixelmator Pro 3.3.11 -->
<svg width="1569" height="540" viewBox="0 0 1569 540" xmlns="http://www.w3.org/2000/svg">
    <g id="AllShape">
        <g id="Group">
            <filter id="filter1" x="0" y="0" width="1569" height="540" filterUnits="userSpaceOnUse" primitiveUnits="userSpaceOnUse" color-interpolation-filters="sRGB">
                <feGaussianBlur stdDeviation="21.752074"/>
                <feOffset dx="-0" dy="1.279534" result="offsetblur"/>
                <feFlood flood-color="#000000" flood-opacity="0.5"/>
                <feComposite in2="offsetblur" operator="in"/>
                <feMerge>
                    <feMergeNode/>
                    <feMergeNode in="SourceGraphic"/>
                </feMerge>
            </filter>
            <path id="Teardrop-Marker" fill="#ffffff" fill-rule="evenodd" stroke="none" filter="url(#filter1)" d="M 1351.640747 74.943756 C 1468.016357 94.980621 1546.114136 205.56488 1526.077271 321.940247 C 1506.040527 438.315613 1395.456421 516.413696 1279.080811 496.376862 C 1162.705322 476.339996 1084.607422 365.755737 1104.644287 249.380371 L 1140.924194 38.663818 L 1351.640747 74.943756 Z"/>
            <path id="Ellipse-copy" fill="#52473b" fill-rule="evenodd" stroke="none" d="M 1450.481079 367.884521 C 1472.829956 309.852539 1446.041504 245.514465 1390.647217 224.181458 C 1335.253052 202.84848 1272.229858 232.598907 1249.880981 290.63092 C 1227.532227 348.662903 1254.320679 413.000946 1309.714844 434.333954 C 1365.109131 455.666931 1428.132324 425.916504 1450.481079 367.884521 Z"/>
            <path id="Ellipse" fill="#52473b" fill-rule="evenodd" stroke="none" d="M 1359.263916 250.487244 C 1381.612793 192.455261 1354.824219 128.117218 1299.430054 106.78421 C 1244.035889 85.451202 1181.012695 115.20163 1158.663818 173.233643 C 1136.314941 231.265625 1163.103516 295.603699 1218.497681 316.936676 C 1273.891846 338.269684 1336.915039 308.519257 1359.263916 250.487244 Z"/>
            <filter id="filter2" x="0" y="0" width="1569" height="540" filterUnits="userSpaceOnUse" primitiveUnits="userSpaceOnUse" color-interpolation-filters="sRGB">
                <feGaussianBlur stdDeviation="21.752074"/>
                <feOffset dx="-0" dy="1.279534" result="offsetblur"/>
                <feFlood flood-color="#000000" flood-opacity="0.5"/>
                <feComposite in2="offsetblur" operator="in"/>
                <feMerge>
                    <feMergeNode/>
                    <feMergeNode in="SourceGraphic"/>
                </feMerge>
            </filter>
            <path id="Rectangle" fill="#ffffff" fill-rule="evenodd" stroke="none" filter="url(#filter2)" d="M 1289.49939 324.938202 L 1416.660156 272.09903 L 1366.848389 152.223969 L 1239.687622 205.063141 Z"/>
            <filter id="filter3" x="0" y="0" width="1569" height="540" filterUnits="userSpaceOnUse" primitiveUnits="userSpaceOnUse" color-interpolation-filters="sRGB">
                <feGaussianBlur stdDeviation="21.752074"/>
                <feOffset dx="-0" dy="1.279534" result="offsetblur"/>
                <feFlood flood-color="#000000" flood-opacity="0.5"/>
                <feComposite in2="offsetblur" operator="in"/>
                <feMerge>
                    <feMergeNode/>
                    <feMergeNode in="SourceGraphic"/>
                </feMerge>
            </filter>
            <path id="Rectangle-copy" fill="#ffffff" fill-rule="evenodd" stroke="none" filter="url(#filter3)" d="M 1236.366211 405.940308 L 1363.526978 353.101105 L 1313.715332 233.226044 L 1186.554443 286.065247 Z"/>
        </g>
        <path id="PRODUCT" fill="#ffffff" fill-rule="evenodd" stroke="none" opacity="0.398801" d="M 874.80072 191.562439 C 874.80072 189.755188 875.243042 188.309357 876.127625 187.225006 C 877.012329 186.140656 878.109863 185.598572 879.420532 185.598572 L 985.281799 185.598572 C 986.461426 185.598572 987.509827 186.09549 988.427185 187.089539 C 989.344666 188.083588 989.868896 189.574554 990 191.562439 L 990 225.313141 C 990 226.939575 989.590332 228.498383 988.77124 229.989349 C 987.952148 231.480316 986.789001 232.225891 985.281799 232.225891 L 951.370911 232.225891 L 951.370911 380.511749 C 951.370911 382.138367 950.944885 383.606689 950.093079 384.916992 C 949.241211 386.227325 948.127136 386.882385 946.751099 386.882385 L 917.853027 386.882385 C 916.738953 386.882385 915.690491 386.272491 914.707581 385.05249 C 913.724731 383.832642 913.233276 382.319 913.233276 380.511749 L 913.233276 232.225891 L 879.420532 232.225891 C 878.109863 232.225891 877.012329 231.638458 876.127625 230.463776 C 875.243042 229.289124 874.80072 227.572174 874.80072 225.313141 Z M 855.633667 200.237305 C 856.74762 201.141022 857.566711 202.315674 858.090942 203.761505 C 858.615173 205.207306 858.516968 206.924255 857.796082 208.91214 L 841.18457 241.443024 C 840.463684 242.979126 839.693787 243.860199 838.874695 244.085968 C 838.055603 244.311951 837.056213 243.927826 835.87677 242.93399 C 832.665894 239.590424 829.127319 237.015076 825.261108 235.207825 C 821.394897 233.400574 817.299438 232.49704 812.974487 232.49704 C 807.601196 232.49704 802.653809 233.897675 798.132385 236.698792 C 793.610779 239.500092 789.711853 243.340576 786.435486 248.220093 C 783.158997 253.099792 780.603516 258.792725 778.768555 265.298859 C 776.933777 271.804993 776.016418 278.762878 776.016418 286.172729 C 776.016418 293.582428 776.933777 300.517853 778.768555 306.978821 C 780.603516 313.439819 783.158997 319.087372 786.435486 323.921936 C 789.711853 328.756287 793.610779 332.574097 798.132385 335.375397 C 802.653809 338.176697 807.601196 339.577332 812.974487 339.577332 C 817.299438 339.577332 821.427734 338.651123 825.359497 336.798706 C 829.291199 334.946106 832.862366 332.348297 836.073364 329.00473 C 837.252808 328.010864 838.235779 327.604248 839.022156 327.784912 C 839.808472 327.965698 840.594849 328.778931 841.381165 330.224731 L 858.189209 363.568665 C 858.910034 365.556732 859.008301 367.228333 858.48407 368.583832 C 857.959839 369.939331 857.140747 371.068848 856.026794 371.972534 C 849.867065 377.665466 843.232422 382.070557 836.122437 385.188141 C 829.012634 388.305725 821.526001 389.864319 813.662598 389.864319 C 806.716492 389.864319 800.049133 388.644531 793.659973 386.204651 C 787.270874 383.764832 781.291443 380.28595 775.721558 375.7677 C 770.15155 371.249634 765.0896 365.850342 760.535278 359.57019 C 755.981079 353.289856 752.065674 346.33194 748.789307 338.696289 C 745.512817 331.060455 742.990051 322.837555 741.220764 314.027039 C 739.451477 305.216736 738.566895 296.022278 738.566895 286.443726 C 738.566895 276.865326 739.451477 267.670868 741.220764 258.860352 C 742.990051 250.050018 745.512817 241.781799 748.789307 234.055817 C 752.065674 226.329681 755.981079 219.303925 760.535278 212.978607 C 765.0896 206.653107 770.15155 201.253998 775.721558 196.780914 C 781.291443 192.308014 787.270874 188.828979 793.659973 186.343964 C 800.049133 183.858948 806.716492 182.616455 813.662598 182.616455 C 821.526001 182.616455 828.947144 184.130096 835.925964 187.157196 C 842.904785 190.184448 849.473938 194.544373 855.633667 200.237305 Z M 629.56012 306.504395 C 629.56012 313.191345 630.231812 318.861572 631.575134 323.51532 C 632.918396 328.169006 634.687744 331.964172 636.882874 334.90094 C 639.078186 337.837891 641.633667 339.983948 644.549805 341.339447 C 647.46582 342.694763 650.496521 343.372498 653.641846 343.372498 C 656.918213 343.372498 660.014526 342.58197 662.930542 341.000488 C 665.846558 339.419189 668.402161 337.069672 670.597351 333.952271 C 672.792603 330.834656 674.529053 326.97168 675.806885 322.363098 C 677.084656 317.754578 677.723572 312.468445 677.723572 306.504395 L 677.723572 191.562439 C 677.723572 189.936005 678.133118 188.535339 678.952209 187.360687 C 679.771301 186.185822 680.868958 185.598572 682.244995 185.598572 L 710.946533 185.598572 C 712.453735 185.598572 713.633179 186.208496 714.485168 187.428314 C 715.336975 188.648346 715.762878 190.026306 715.762878 191.562439 L 715.762878 305.82666 C 715.762878 321.640198 714.075623 334.923645 710.700867 345.67688 C 707.326172 356.430115 702.788269 365.082275 697.08728 371.633606 C 691.38623 378.185059 684.784363 382.883759 677.281311 385.730225 C 669.778259 388.57666 661.898499 390 653.641846 390 C 645.385193 390 637.489014 388.531525 629.953247 385.594727 C 622.417419 382.657959 615.799072 377.868774 610.098083 371.22699 C 604.397095 364.585205 599.859314 355.910522 596.484619 345.202423 C 593.109863 334.494324 591.422485 321.369263 591.422485 305.82666 L 591.422485 191.562439 C 591.422485 190.026306 591.799316 188.648346 592.552856 187.428314 C 593.306458 186.208496 594.240234 185.598572 595.354187 185.598572 L 624.842102 185.598572 C 625.82489 185.598572 626.857056 186.16333 627.938232 187.292847 C 629.01947 188.422363 629.56012 189.84549 629.56012 191.562439 Z M 566.259583 286.443726 C 566.259583 296.022278 565.374817 305.126221 563.60553 313.756104 C 561.836365 322.385803 559.313477 330.42804 556.036987 337.883057 C 552.76062 345.337891 548.845337 352.092529 544.291077 358.146881 C 539.736755 364.201233 534.691223 369.351868 529.153931 373.598999 C 523.616821 377.8461 517.63739 381.121643 511.215515 383.426025 C 504.793671 385.730225 498.142578 386.882385 491.262115 386.882385 L 442.80365 386.882385 C 441.624207 386.882385 440.575745 386.520935 439.658295 385.798035 C 438.740967 385.075134 438.282227 383.539001 438.282227 381.189484 L 438.282227 191.833588 C 438.282227 189.936005 438.659027 188.399689 439.412628 187.225006 C 440.166199 186.050354 441.296478 185.462921 442.80365 185.462921 L 491.262115 185.462921 C 498.142578 185.462921 504.777344 186.637573 511.166321 188.987122 C 517.55542 191.336639 523.518433 194.680023 529.055725 199.017456 C 534.592834 203.354889 539.654907 208.55069 544.241882 214.605042 C 548.828918 220.659424 552.744202 227.436523 555.987915 234.936859 C 559.231567 242.437042 561.754456 250.524475 563.556458 259.19931 C 565.358521 267.874176 566.259583 276.955627 566.259583 286.443726 Z M 476.321625 234.123474 L 476.321625 338.35733 L 484.578125 338.35733 C 486.085327 338.35733 487.559631 338.289673 489.001312 338.154022 C 490.443024 338.018555 491.884583 337.860413 493.326263 337.679749 C 498.240936 337.137512 502.827881 335.488403 507.087189 332.732239 C 511.346649 329.976288 515.065308 326.361755 518.243408 321.888672 C 521.421631 317.415771 523.911682 312.152161 525.713684 306.097778 C 527.515747 300.043396 528.416809 293.44696 528.416809 286.308228 C 528.416809 278.717743 527.384644 271.737152 525.320496 265.366486 C 523.256287 258.996002 520.455017 253.483917 516.916504 248.8302 C 513.37793 244.176483 509.233276 240.561951 504.482483 237.98645 C 499.731567 235.411133 494.669586 234.123474 489.296204 234.123474 Z M 303.424438 286.308228 C 303.424438 293.808411 304.341827 300.811462 306.176636 307.317627 C 308.011505 313.823914 310.583435 319.493988 313.892609 324.328522 C 317.201843 329.163055 321.117126 332.958221 325.638611 335.714355 C 330.160126 338.470337 335.140289 339.84848 340.579163 339.84848 C 346.018066 339.84848 351.014557 338.470337 355.568787 335.714355 C 360.123047 332.958221 364.054749 329.163055 367.363922 324.328522 C 370.673157 319.493988 373.245087 313.823914 375.079895 307.317627 C 376.914703 300.811462 377.832153 293.808411 377.832153 286.308228 C 377.832153 278.898376 376.914703 271.917969 375.079895 265.366486 C 373.245087 258.815186 370.673157 253.099792 367.363922 248.220093 C 364.054749 243.340576 360.123047 239.500092 355.568787 236.698792 C 351.014557 233.897675 346.018066 232.49704 340.579163 232.49704 C 335.140289 232.49704 330.160126 233.897675 325.638611 236.698792 C 321.117126 239.500092 317.201843 243.340576 313.892609 248.220093 C 310.583435 253.099792 308.011505 258.815186 306.176636 265.366486 C 304.341827 271.917969 303.424438 278.898376 303.424438 286.308228 Z M 265.483398 286.443726 C 265.483398 276.865326 266.368073 267.670868 268.137299 258.860352 C 269.906616 250.050018 272.429443 241.781799 275.705841 234.055817 C 278.98233 226.329681 282.897614 219.303925 287.451843 212.978607 C 292.006104 206.653107 297.068146 201.253998 302.638092 196.780914 C 308.208038 192.308014 314.187469 188.828979 320.576569 186.343964 C 326.965637 183.858948 333.633087 182.616455 340.579163 182.616455 C 347.459686 182.616455 354.110779 183.858948 360.532562 186.343964 C 366.954437 188.828979 372.950226 192.308014 378.520111 196.780914 C 384.090149 201.253998 389.168549 206.653107 393.755615 212.978607 C 398.342529 219.303925 402.257935 226.329681 405.501556 234.055817 C 408.7453 241.781799 411.268066 250.050018 413.070099 258.860352 C 414.872162 267.670868 415.773163 276.865326 415.773163 286.443726 C 415.773163 296.022278 414.872162 305.216736 413.070099 314.027039 C 411.268066 322.837555 408.7453 331.060455 405.501556 338.696289 C 402.257935 346.33194 398.342529 353.289856 393.755615 359.57019 C 389.168549 365.850342 384.090149 371.249634 378.520111 375.7677 C 372.950226 380.28595 366.954437 383.764832 360.532562 386.204651 C 354.110779 388.644531 347.459686 389.864319 340.579163 389.864319 C 333.633087 389.864319 326.965637 388.644531 320.576569 386.204651 C 314.187469 383.764832 308.208038 380.28595 302.638092 375.7677 C 297.068146 371.249634 292.006104 365.850342 287.451843 359.57019 C 282.897614 353.289856 278.98233 346.33194 275.705841 338.696289 C 272.429443 331.060455 269.906616 322.837555 268.137299 314.027039 C 266.368073 305.216736 265.483398 296.022278 265.483398 286.443726 Z M 134.164154 191.833588 C 134.164154 189.936005 134.524582 188.422363 135.245422 187.292847 C 135.966202 186.16333 137.047409 185.598572 138.489044 185.598572 L 201.986221 185.598572 C 208.735687 185.598572 215.059174 187.338013 220.956741 190.817047 C 226.85437 194.295898 231.998337 199.017456 236.388702 204.981323 C 240.779144 210.945374 244.235748 217.925964 246.758652 225.923065 C 249.281479 233.920166 250.542923 242.436859 250.542923 251.473175 C 250.542923 257.618042 249.936752 263.468903 248.724503 269.026367 C 247.512177 274.583618 245.824875 279.779419 243.662399 284.613953 C 241.499924 289.448303 238.927979 293.830872 235.946411 297.761719 C 232.964859 301.692505 229.704865 305.058594 226.16626 307.859863 L 251.427505 373.463501 C 251.886246 374.728516 252.475967 376.219482 253.196808 377.936401 C 253.917648 379.653381 254.278015 381.144348 254.278015 382.409485 C 254.278015 383.855316 253.934036 384.962158 253.245926 385.730225 C 252.557892 386.498291 251.62413 386.882385 250.444611 386.882385 L 216.730164 386.882385 C 215.61615 386.882385 214.616882 386.430634 213.732224 385.526917 C 212.84758 384.623383 212.274231 383.403381 212.012115 381.867249 L 188.126938 319.923279 L 172.203491 319.923279 L 172.203491 381.054016 C 172.203491 384.939667 170.696365 386.882385 167.682053 386.882385 L 138.489044 386.882385 C 137.178467 386.882385 136.130005 386.407959 135.343674 385.45929 C 134.557327 384.510376 134.164154 383.041931 134.164154 381.054016 Z M 211.127457 252.015442 C 211.127457 249.304443 210.767044 246.593658 210.046265 243.88266 C 209.325409 241.171875 208.309769 238.686859 206.999207 236.427826 C 205.688568 234.16864 204.115952 232.271057 202.281082 230.734924 C 200.446289 229.198792 198.414948 228.204773 196.186966 227.752991 C 194.352173 227.572174 192.632065 227.414032 191.026566 227.278564 C 189.421127 227.142883 187.668274 227.075256 185.767914 227.075256 L 172.203491 227.075256 L 172.203491 276.82016 L 190.289413 276.82016 C 191.468918 276.82016 192.51738 276.774994 193.434784 276.684509 C 194.352173 276.594177 195.367889 276.45871 196.481827 276.277893 C 198.77536 275.916443 200.839462 274.990234 202.674255 273.499268 C 204.509125 272.008301 206.048996 270.155884 207.294067 267.941986 C 208.539078 265.727936 209.489288 263.243134 210.144577 260.486969 C 210.79985 257.730835 211.127457 254.907043 211.127457 252.015442 Z M 0.092773 191.833588 C 0.092773 189.936005 0.45313 188.422363 1.173977 187.292847 C 1.894757 186.16333 2.976026 185.598572 4.417653 185.598572 L 67.226746 185.598572 C 71.748238 185.598572 76.007561 186.45694 80.004829 188.173889 C 84.002098 189.890839 87.671623 192.262848 91.013611 195.289948 C 94.355598 198.31723 97.369904 201.931549 100.056541 206.133514 C 102.74324 210.335449 105.020332 214.87619 106.887939 219.755707 C 108.755486 224.635406 110.18074 229.76355 111.163635 235.140167 C 112.146591 240.516815 112.638069 245.96106 112.638069 251.473175 C 112.638069 259.605927 111.573242 267.557892 109.44352 275.329193 C 107.313858 283.100311 104.283173 290.013062 100.351463 296.067444 C 96.419693 302.121796 91.701706 307.023987 86.19725 310.773987 C 80.692856 314.52417 74.598747 316.444397 67.914772 316.534729 L 38.132099 316.534729 L 38.132099 381.054016 C 38.132099 384.939667 36.624912 386.882385 33.610603 386.882385 L 4.417653 386.882385 C 3.107083 386.882385 2.058628 386.407959 1.272286 385.45929 C 0.485944 384.510376 0.092773 383.041931 0.092773 381.054016 Z M 74.107262 251.202209 C 74.107262 248.491241 73.763214 245.780426 73.07518 243.069458 C 72.387154 240.358459 71.387817 237.941284 70.077248 235.817749 C 68.766678 233.694183 67.17762 231.954742 65.310074 230.599274 C 63.442463 229.243958 61.329178 228.566223 58.970154 228.566223 L 38.132099 228.566223 L 38.132099 273.838043 L 58.970154 273.838043 C 61.329178 273.838043 63.458839 273.182953 65.3592 271.87262 C 67.25956 270.562469 68.84861 268.868225 70.126366 266.789825 C 71.40419 264.711426 72.387154 262.316925 73.07518 259.605927 C 73.763214 256.894958 74.107262 254.093842 74.107262 251.202209 Z"/>
    </g>
</svg>
