<?xml version="1.0" encoding="UTF-8"?>
<!-- Generated by Pixelmator Pro 3.3.11 -->
<svg width="1520" height="564" viewBox="0 0 1520 564" xmlns="http://www.w3.org/2000/svg">
    <g id="Group">
        <g id="g1">
            <path id="Rectangular-Outline" fill="#fff9f9" fill-rule="evenodd" stroke="none" d="M 176 352 L 176 0 L 528 0 L 528 352 L 176 352 Z M 203.286804 324.713135 L 500.713135 324.713135 L 500.713135 27.286865 L 203.286804 27.286865 L 203.286804 324.713135 Z"/>
            <path id="Rectangular-Outline-copy" fill="#fff9f9" fill-rule="evenodd" stroke="none" d="M 0 528 L 0 176 L 352 176 L 352 528 L 0 528 Z M 27.286804 500.713135 L 324.713135 500.713135 L 324.713135 203.286865 L 27.286804 203.286865 L 27.286804 500.713135 Z"/>
            <path id="Rectangular-Outline-copy-2" fill="#fff9f9" fill-rule="evenodd" stroke="none" d="M 218 310 L 218 219 L 309 219 L 309 310 L 218 310 Z M 225.05426 302.94574 L 301.94574 302.94574 L 301.94574 226.05426 L 225.05426 226.05426 L 225.05426 302.94574 Z"/>
            <path id="Rectangular-Outline-copy-3" fill="#fff9f9" fill-rule="evenodd" stroke="none" d="M 228 300 L 228 229 L 299 229 L 299 300 L 228 300 Z M 233.503876 294.496124 L 293.496124 294.496124 L 293.496124 234.503876 L 233.503876 234.503876 L 233.503876 294.496124 Z"/>
            <path id="Light-Bulb" fill="#fff9f9" fill-rule="evenodd" stroke="none" d="M 272.880005 261.73999 C 272.538391 262.420105 270.538635 266.499969 269.23999 269.439972 C 268.982391 270.023224 268.540009 271.267395 268.540009 272.099976 L 268.540009 273.919983 C 268.540009 274.538544 268.038544 275.039978 267.420013 275.039978 L 259.579987 275.039978 C 258.961456 275.039978 258.459991 274.538544 258.459991 273.919983 L 258.459991 272.099976 C 258.459991 271.267395 258.017609 270.023224 257.76001 269.439972 C 256.461365 266.499969 254.461594 262.420105 254.119995 261.73999 C 253.383942 260.261139 253.00058 258.631866 253 256.97998 C 253 251.181 257.701019 246.47998 263.5 246.47998 C 269.298981 246.47998 274 251.181 274 256.97998 C 273.99942 258.631866 273.616058 260.261139 272.880005 261.73999 Z M 268.26001 276.999969 C 268.26001 277.309265 268.009277 277.559998 267.700012 277.559998 L 259.299988 277.559998 C 258.990723 277.559998 258.73999 277.309265 258.73999 276.999969 L 258.73999 275.879974 L 268.26001 275.879974 L 268.26001 276.999969 Z M 267.700012 279.519989 C 267.700012 279.829254 267.44928 280.079987 267.140015 280.079987 L 266.859985 280.079987 L 266.859985 280.359985 C 266.859985 280.823914 266.483917 281.199982 266.019989 281.199982 L 265.477905 281.199982 C 265.18222 282.038879 264.389496 282.600006 263.5 282.600006 C 262.610504 282.600006 261.81778 282.038879 261.522095 281.199982 L 260.980011 281.199982 C 260.516083 281.199982 260.140015 280.823914 260.140015 280.359985 L 260.140015 280.079987 L 259.859985 280.079987 C 259.55072 280.079987 259.299988 279.829254 259.299988 279.519989 L 259.299988 278.399994 L 267.700012 278.399994 L 267.700012 279.519989 Z"/>
        </g>
        <path id="Rectangle" fill="#fff9f9" fill-opacity="0.406305" fill-rule="evenodd" stroke="none" d="M 555 361 L 1520 361 L 1520 72 L 555 72 Z"/>
        <text id="Design" xml:space="preserve" x="603" y="302" font-family="Cocogoose" font-size="224" fill="#52473b">Design</text>
        <text id="Idea" xml:space="preserve" x="884" y="563" font-family="Cocogoose" font-size="224" fill="#ffffff">Idea</text>
    </g>
</svg>
