<?xml version="1.0" encoding="UTF-8"?>
<!-- Generated by Pixelmator Pro 3.3.11 -->
<svg width="510" height="509" viewBox="0 0 510 509" xmlns="http://www.w3.org/2000/svg">
    <g id="Group">
        <path id="Rounded-Rectangle" fill="#0277b7" fill-rule="evenodd" stroke="none" d="M 0 469 C -0 491.0914 17.908609 509 40 509 L 470 509 C 492.0914 509 510 491.0914 510 469 L 510 40 C 510 17.9086 492.0914 0 470 0 L 40 0 C 17.908609 0 0 17.9086 0 40 Z"/>
        <path id="Shape" fill="#ffffff" fill-rule="evenodd" stroke="none" d="M 115.5 454.690613 C 98.449997 454.795441 83.214142 454.483917 81.642548 453.998352 C 80.070953 453.512787 77.871353 452.302002 76.754532 451.307739 C 75.637726 450.313477 74.111069 448.051941 73.361984 446.282104 C 72.237473 443.625305 72.000656 421.656525 72.003738 320.282104 C 72.007416 199.528717 72.040314 197.446136 73.994598 194.240845 C 75.087509 192.448334 77.448334 190.087524 79.24086 188.994598 C 82.309204 187.12381 84.331314 187.007263 113.78212 187.003723 C 138.751678 187.000763 145.759613 187.290558 148.510223 188.439819 C 150.405518 189.23172 152.86438 191.369232 153.974365 193.189819 C 155.969955 196.462982 155.992569 197.890533 155.996262 320.845703 C 155.999664 434.164124 155.85495 445.436951 154.364456 447.960144 C 153.464905 449.482971 151.327408 451.577393 149.614456 452.614441 C 146.76059 454.342224 143.906219 454.51593 115.5 454.690613 Z M 238.17865 454.690277 C 220.755402 454.794922 205.203674 454.480591 203.619293 453.991821 C 202.034912 453.502991 199.671722 452.100769 198.367767 450.875793 C 197.063843 449.650787 195.55014 447.0401 195.004059 445.07428 C 194.37207 442.799255 194.009125 397.358887 194.005585 320.065735 C 194.000061 199.79422 194.019562 198.591003 196.044189 194.408691 C 197.369843 191.670288 199.268402 189.625977 201.445343 188.592957 C 204.298096 187.239227 209.58783 187 236.666718 187 C 265.617401 187 268.842773 187.167084 271.938324 188.827271 C 273.812256 189.832275 276.167725 192.187744 277.172729 194.061676 C 278.617981 196.75647 279.007019 199.77179 279.033539 208.484406 C 279.067047 219.5 279.067047 219.5 282.225128 215.5 C 283.962067 213.299988 287.773712 209.126556 290.695435 206.225708 C 293.617157 203.32486 298.753448 199.176758 302.109406 197.00769 C 305.465332 194.838623 311.651123 191.737823 315.85556 190.117004 C 320.059998 188.496155 327.325012 186.442291 332 185.552826 C 336.674988 184.663361 345.295929 183.658752 351.157623 183.320313 C 357.322937 182.964355 366.308594 183.210602 372.47522 183.90451 C 378.338226 184.56424 387.042267 186.235229 391.817596 187.617859 C 396.592926 189.000488 404.042175 192.014587 408.371521 194.315857 C 412.700867 196.617126 419.129852 201.142487 422.658203 204.372192 C 426.186523 207.601898 431.029297 213.001892 433.419922 216.372192 C 435.810547 219.742493 439.339722 225.649994 441.262634 229.5 C 443.185486 233.350006 446.134888 240.804962 447.816772 246.066559 C 449.498718 251.328186 451.574646 259.666779 452.430054 264.596771 C 453.2854 269.526764 454.431458 278.946808 454.976807 285.530182 C 455.522156 292.113586 455.973755 330.799988 455.980408 371.5 C 455.991882 441.508728 455.893677 445.661804 454.159424 448.5 C 453.151184 450.149994 451.059753 452.174988 449.51178 453 C 447.169556 454.248291 441.022034 454.5 412.878906 454.5 C 383.206573 454.5 378.726959 454.297546 376.339142 452.848724 C 374.842346 451.940521 372.792053 449.690521 371.782928 447.848724 C 370.058624 444.701538 369.930511 440.106995 369.654327 371.5 C 369.396973 307.565247 369.154083 297.641602 367.698486 291.587555 C 366.784393 287.785706 364.716736 281.854889 363.103729 278.407959 C 361.490692 274.960999 358.349762 270.165039 356.123871 267.750214 C 353.89798 265.335419 349.922028 262.191162 347.288391 260.763 C 344.654785 259.334839 339.799988 257.613373 336.5 256.937531 C 333.116241 256.244537 326.915924 255.917358 322.280487 256.187225 C 315.387329 256.588501 312.856293 257.261108 306.595795 260.355194 C 301.800476 262.725189 297.720978 265.646149 295.189087 268.522522 C 293.02124 270.985321 289.652039 276.03775 287.701935 279.750183 C 285.751831 283.462585 283.11676 290.100006 281.846222 294.5 C 279.541321 302.482086 279.535645 302.657898 279.303955 373 C 279.088318 438.472839 278.944397 443.743805 277.285889 446.918976 C 276.30365 448.799438 274.230408 451.274414 272.67865 452.418976 C 269.974609 454.413483 268.540253 454.507904 238.17865 454.690277 Z M 113.539902 163.946228 C 107.733246 163.911682 102.532852 163.255707 99 162.112213 C 95.975006 161.133087 91.027756 159.069092 88.006119 157.525574 C 84.984497 155.982025 79.532532 151.73941 75.89064 148.097534 C 71.948944 144.155853 67.996017 138.954102 66.123611 135.244873 C 64.393631 131.81778 62.30809 126.441162 61.48909 123.296814 C 60.67009 120.152466 60 114.168884 60 110 C 60 105.831116 60.67009 99.847534 61.48909 96.703186 C 62.30809 93.558838 64.376144 88.216858 66.084778 84.832092 C 67.793396 81.447266 71.510803 76.205933 74.345688 73.184631 C 77.180557 70.163269 82.052597 66.028442 85.172424 63.995972 C 88.292252 61.963562 94.087509 59.258057 98.050766 57.983704 C 103.301056 56.295471 107.602478 55.666687 113.900299 55.666687 C 119.916046 55.666687 124.665421 56.320496 129.521957 57.817322 C 133.359879 59.000183 138.967667 61.394348 141.983704 63.137695 C 144.999741 64.881042 149.985092 68.825745 153.062271 71.903687 C 156.842133 75.684509 160.011612 80.257446 162.832397 86 C 165.711258 91.860779 167.372635 96.906372 168.183105 102.25 C 169.08963 108.226868 169.083984 111.766357 168.158325 117.720245 C 167.362305 122.840546 165.593552 128.259644 162.906281 133.811523 C 160.003357 139.80899 157.10289 143.928833 152.677078 148.341278 C 149.279526 151.728577 143.763107 155.948456 140.418396 157.718811 C 137.073669 159.489166 131.691696 161.626648 128.45845 162.468811 C 125.158859 163.328247 118.613861 163.97641 113.539902 163.946228 Z"/>
    </g>
</svg>
