<?xml version="1.0" encoding="UTF-8"?>
<!-- Generated by Pixelmator Pro 3.3.11 -->
<svg width="1399" height="1093" viewBox="0 0 1399 1093" xmlns="http://www.w3.org/2000/svg">
    <g id="Shaped">
        <filter id="filter1" x="0" y="0" width="1399" height="1093" filterUnits="userSpaceOnUse" primitiveUnits="userSpaceOnUse" color-interpolation-filters="sRGB">
            <feGaussianBlur stdDeviation="34"/>
            <feOffset dx="-0" dy="2" result="offsetblur"/>
            <feFlood flood-color="#000000" flood-opacity="0.5"/>
            <feComposite in2="offsetblur" operator="in"/>
            <feMerge>
                <feMergeNode/>
                <feMergeNode in="SourceGraphic"/>
            </feMerge>
        </filter>
        <path id="JOURNEY" fill="#ffffff" fill-rule="evenodd" stroke="none" filter="url(#filter1)" d="M 792.144531 879.539063 C 791.438171 879.526123 790.790833 879.373474 790.203125 879.078125 C 789.158264 878.553101 788.433411 877.509155 788.029297 875.947266 L 749.566406 727.28125 C 749.180664 725.790344 749.263123 724.501587 749.814453 723.412109 C 750.365845 722.322632 751.422424 721.575989 752.984375 721.171875 L 821.779297 703.371094 C 829.091858 701.479126 836.295776 701.074097 843.392578 702.154297 C 850.48938 703.234497 857.023132 705.501953 862.992188 708.957031 C 868.961243 712.412109 874.125427 716.927979 878.484375 722.503906 C 882.843323 728.079834 885.940491 734.417969 887.777344 741.517578 C 889.026367 746.345337 889.558777 751.112305 889.375 755.818359 C 889.191223 760.524414 888.420715 765.078003 887.060547 769.482422 C 885.700378 773.886841 883.804321 778.05249 881.373047 781.976563 C 878.941772 785.900635 876.092529 789.457642 872.828125 792.650391 L 913.533203 837.113281 C 914.287354 837.978638 915.229431 838.984009 916.359375 840.130859 C 917.48938 841.27771 918.182312 842.347839 918.439453 843.341797 C 918.733337 844.477722 918.585449 845.443909 917.996094 846.240234 C 917.406799 847.03656 916.473267 847.601013 915.195313 847.931641 L 878.667969 857.382813 C 877.460999 857.695068 876.286682 857.620178 875.144531 857.158203 C 874.002441 856.696228 873.133362 855.897095 872.537109 854.763672 L 834.068359 812.792969 L 816.816406 817.255859 L 829.242188 865.283203 C 830.032043 868.33606 828.795105 870.285889 825.529297 871.130859 L 793.900391 879.314453 C 793.279175 879.475159 792.69397 879.549133 792.144531 879.539063 Z M 942.474609 840.673828 C 941.608215 840.676086 940.869141 840.461426 940.259766 840.027344 C 939.284729 839.332764 938.631409 838.346313 938.300781 837.068359 L 899.783203 688.189453 C 899.452576 686.911499 899.557495 685.710938 900.099609 684.585938 C 900.641785 683.460938 901.69397 682.695068 903.255859 682.291016 L 938.080078 673.28125 C 939.074036 673.024048 940.167786 673.00708 941.361328 673.228516 C 942.55481 673.449951 943.697815 674.063477 944.791016 675.068359 C 957.573059 687.289734 970.228027 699.316284 982.757813 711.148438 C 995.287659 722.980591 1007.979004 734.998169 1020.832031 747.201172 L 998.763672 661.898438 C 998.71698 660.547058 999.027039 659.406921 999.695313 658.476563 C 1000.363586 657.546143 1001.266418 656.93457 1002.402344 656.640625 L 1032.751953 648.787109 C 1034.242798 648.401367 1035.591675 648.489502 1036.796875 649.048828 C 1038.002075 649.608154 1038.797852 650.632141 1039.183594 652.123047 L 1077.8125 801.427734 C 1078.179932 802.847656 1078.023193 804.005493 1077.345703 804.900391 C 1076.668213 805.795288 1075.584717 806.43457 1074.09375 806.820313 L 1040.123047 815.609375 C 1039.200073 815.848145 1038.301025 815.740479 1037.425781 815.285156 C 1036.550415 814.829895 1035.583862 814.171509 1034.527344 813.308594 C 1021.043884 800.132446 1007.713867 787.104736 994.535156 774.228516 C 981.356445 761.352295 967.990051 748.335449 954.435547 735.177734 L 978.101563 826.65625 C 978.505676 828.21814 978.455139 829.482666 977.947266 830.447266 C 977.439331 831.411926 976.261902 832.131836 974.416016 832.609375 L 944.171875 840.435547 C 943.55957 840.593994 942.994446 840.672485 942.474609 840.673828 Z M 1116.251953 795.685547 C 1115.545532 795.672607 1114.898193 795.517944 1114.310547 795.222656 C 1113.265747 794.697632 1112.540771 793.653687 1112.136719 792.091797 L 1073.673828 643.427734 C 1073.288086 641.936829 1073.389648 640.641663 1073.976563 639.542969 C 1074.563354 638.444275 1075.600952 637.702148 1077.091797 637.316406 L 1182.839844 609.957031 C 1184.401733 609.552979 1185.729614 609.701782 1186.820313 610.404297 C 1187.911133 611.106812 1188.658447 612.238892 1189.0625 613.800781 L 1195.894531 640.210938 C 1196.206787 641.417847 1196.078979 642.681091 1195.511719 644.001953 C 1194.944458 645.322815 1193.845825 646.194702 1192.212891 646.617188 L 1123.205078 664.470703 L 1130.009766 690.775391 L 1183.255859 677 C 1184.604858 676.651001 1185.806641 676.680481 1186.859375 677.089844 C 1187.912109 677.499207 1188.631836 678.448486 1189.017578 679.939453 L 1194.96875 702.943359 C 1195.22583 703.937317 1195.08313 704.996094 1194.541016 706.121094 C 1193.998779 707.246094 1192.981201 708.000977 1191.490234 708.386719 L 1138.138672 722.191406 L 1145.164063 749.347656 L 1216.726563 730.832031 C 1219.921387 730.005432 1221.942261 731.224426 1222.787109 734.490234 L 1229.730469 761.326172 C 1229.914063 762.036133 1229.796021 762.749878 1229.375 763.464844 C 1229.605347 765.526245 1228.406128 766.896484 1225.779297 767.576172 L 1118.007813 795.458984 C 1117.386597 795.619751 1116.801392 795.695618 1116.251953 795.685547 Z M 808.054688 783.390625 L 827.648438 778.320313 C 828.926392 777.989685 830.053711 777.660156 831.029297 777.332031 C 832.004883 777.003906 833.077881 776.612427 834.248047 776.158203 C 836.659424 775.231323 838.707764 773.926025 840.392578 772.240234 C 842.077332 770.554443 843.368713 768.666504 844.267578 766.578125 C 845.166504 764.489746 845.692078 762.270935 845.841797 759.921875 C 845.991516 757.572815 845.771362 755.264038 845.183594 752.992188 C 844.632568 750.862305 843.691406 748.832153 842.359375 746.904297 C 841.027344 744.97644 839.422119 743.309875 837.542969 741.902344 C 835.663879 740.494812 833.573608 739.44458 831.273438 738.751953 C 828.973267 738.059326 826.570129 737.847656 824.064453 738.117188 C 822.039795 738.489502 820.143921 738.8479 818.376953 739.191406 C 816.609985 739.534912 814.697571 739.973145 812.638672 740.505859 L 797.943359 744.306641 L 808.054688 783.390625 Z M 1296.732422 749.017578 C 1295.940918 749.000427 1295.229248 748.777954 1294.597656 748.349609 C 1293.587036 747.664185 1292.880615 746.540405 1292.476563 744.978516 L 1277.019531 685.236328 L 1203.585938 609.132813 C 1202.424194 608.448608 1201.732178 607.682007 1201.511719 606.830078 C 1201.401611 606.404114 1201.447144 605.994507 1201.648438 605.601563 C 1201.849731 605.208618 1202.200317 604.946899 1202.697266 604.818359 L 1243.697266 594.210938 C 1244.230957 594.224365 1244.644409 594.211792 1244.9375 594.173828 C 1245.230713 594.135864 1245.54126 594.169434 1245.871094 594.273438 C 1246.20105 594.377441 1246.55835 594.58728 1246.943359 594.904297 C 1247.328369 595.221313 1247.880249 595.741455 1248.597656 596.464844 L 1288.826172 644.798828 L 1300.353516 583.074219 C 1300.559082 582.112061 1300.752563 581.399536 1300.935547 580.935547 C 1301.11853 580.471619 1301.3302 580.114197 1301.568359 579.863281 C 1301.806396 579.612305 1302.080322 579.428711 1302.390625 579.310547 C 1302.700928 579.192383 1303.050171 579.006104 1303.439453 578.753906 L 1344.439453 568.146484 C 1344.936401 568.017883 1345.386841 568.071777 1345.789063 568.308594 C 1346.191162 568.54541 1346.446411 568.87677 1346.556641 569.302734 C 1346.758667 570.083679 1346.490723 571.100464 1345.753906 572.351563 L 1318.392578 674.759766 L 1333.794922 734.289063 C 1334.658203 737.625854 1333.457153 739.715576 1330.191406 740.560547 L 1298.244141 748.828125 C 1297.71167 748.965881 1297.207275 749.027832 1296.732422 749.017578 Z M 647.900757 849.709717 C 649.26001 854.96344 651.14032 859.230103 653.541748 862.509827 C 655.943115 865.789551 658.63147 868.275391 661.606812 869.967407 C 664.582153 871.659485 667.78717 872.629272 671.222046 872.87677 C 674.65686 873.124329 678.078186 872.807251 681.485962 871.925537 C 685.035767 871.007141 688.229553 869.518066 691.067444 867.458191 C 693.905334 865.398376 696.196533 862.836182 697.941162 859.771484 C 699.685852 856.706726 700.781982 853.184937 701.229614 849.205994 C 701.677246 845.22699 701.294861 840.894714 700.082581 836.208984 L 676.717957 745.902527 C 676.387329 744.624634 676.546326 743.409363 677.195007 742.256836 C 677.843628 741.104248 678.913452 740.335083 680.404358 739.949402 L 711.500427 731.904053 C 713.133362 731.481567 714.535217 731.630127 715.706177 732.349792 C 716.877075 733.069458 717.618652 734.032715 717.930908 735.239624 L 741.157776 825.013672 C 744.372253 837.437927 745.244263 848.347168 743.773804 857.741699 C 742.303345 867.136169 739.145752 875.205933 734.300781 881.951172 C 729.455872 888.696472 723.25824 894.23877 715.707825 898.578369 C 708.15741 902.917969 699.909546 906.244873 690.96405 908.559326 C 682.018555 910.873779 673.165222 911.933472 664.403687 911.738464 C 655.642151 911.543457 647.498169 909.635925 639.971436 906.015747 C 632.444702 902.39563 625.764954 896.852112 619.932007 889.385071 C 614.09906 881.91803 609.602905 872.078979 606.443542 859.867676 L 583.216736 770.093689 C 582.904419 768.88678 583.032532 767.698486 583.601013 766.528809 C 584.169495 765.359131 585.05719 764.618164 586.26416 764.305908 L 618.212158 756.0401 C 619.2771 755.764587 620.510071 755.919006 621.911133 756.503357 C 623.312134 757.087769 624.187195 758.054382 624.536194 759.40332 Z M 455.727997 882.500122 C 457.252594 888.392761 459.670044 893.637695 462.980469 898.235107 C 466.290894 902.83252 470.230042 906.566467 474.798065 909.437134 C 479.366058 912.307861 484.379486 914.192139 489.83844 915.090088 C 495.297394 915.988037 500.973145 915.674683 506.865814 914.150146 C 512.758484 912.625549 517.891724 910.142273 522.265686 906.700317 C 526.639648 903.258301 530.127869 899.174438 532.730469 894.448547 C 535.333069 889.722656 536.967041 884.546753 537.632385 878.920715 C 538.297729 873.294678 537.868103 867.535461 536.343567 861.642761 C 534.837341 855.821106 532.424438 850.593872 529.104858 845.960999 C 525.785217 841.328125 521.836914 837.558655 517.259705 834.652466 C 512.682495 831.746277 507.642181 829.831055 502.138519 828.90686 C 496.634888 827.982544 490.936829 828.282715 485.044159 829.807312 C 479.151489 831.331909 474.040588 833.828308 469.711273 837.296631 C 465.381989 840.764893 461.920685 844.8797 459.327271 849.641113 C 456.733887 854.402466 455.109131 859.613892 454.452942 865.275391 C 453.796783 870.93689 454.221802 876.678406 455.727997 882.500122 Z M 414.649078 893.241882 C 412.702026 885.716309 411.791504 878.244629 411.91745 870.826538 C 412.043427 863.408508 413.096039 856.205261 415.075317 849.216675 C 417.054626 842.228149 419.868439 835.610718 423.516876 829.364441 C 427.165283 823.118103 431.552155 817.457214 436.677582 812.381592 C 441.802979 807.305969 447.574097 802.896606 453.991058 799.153259 C 460.408051 795.409912 467.379211 792.564819 474.904785 790.617737 C 482.359375 788.689026 489.817932 787.800842 497.28067 787.953125 C 504.743408 788.105408 511.946625 789.15802 518.890503 791.110962 C 525.834412 793.063965 532.434021 795.882385 538.689514 799.566284 C 544.945068 803.250244 550.615112 807.672607 555.699951 812.833496 C 560.784729 817.994385 565.19873 823.783264 568.942017 830.200256 C 572.685364 836.617188 575.530518 843.588379 577.477539 851.113953 C 579.424622 858.639526 580.317444 866.115845 580.155945 873.543091 C 579.994507 880.970337 578.932678 888.138062 576.97052 895.046448 C 575.008362 901.954834 572.180786 908.518921 568.487671 914.738953 C 564.794556 920.958984 560.389954 926.624451 555.273682 931.735596 C 550.157471 936.84668 544.368591 941.260742 537.906982 944.977722 C 531.445313 948.694702 524.487244 951.517517 517.032715 953.446167 C 509.507141 955.39325 502.035431 956.303833 494.617371 956.177856 C 487.19931 956.05188 480.013855 954.994629 473.06076 953.006165 C 466.107697 951.0177 459.525818 948.194702 453.315002 944.537109 C 447.104156 940.879517 441.447876 936.510376 436.345917 931.429626 C 431.243988 926.348877 426.839172 920.595581 423.131348 914.169373 C 419.423553 907.743225 416.596161 900.767456 414.649078 893.241882 Z M 326.88327 835.959229 C 326.203644 833.332397 327.220673 831.554321 329.934418 830.625 L 361.349976 822.496948 C 365.183746 821.505066 367.578186 822.85498 368.533356 826.546753 L 406.280396 972.44281 C 408.098877 979.471436 408.400391 986.418945 407.184937 993.285645 C 405.969452 1000.152344 403.575775 1006.490601 400.003815 1012.300537 C 396.431854 1018.110474 391.844177 1023.141602 386.240662 1027.394043 C 380.637146 1031.646484 374.356689 1034.672729 367.399078 1036.4729 C 363.281311 1037.538208 359.115204 1038.123779 354.900665 1038.229492 C 350.686096 1038.335083 346.552032 1037.946533 342.498322 1037.063843 C 338.444641 1036.18103 334.529266 1034.807983 330.752136 1032.944702 C 326.974976 1031.081299 323.464996 1028.713379 320.222076 1025.840698 C 319.990723 1025.824829 319.737274 1025.284424 319.461761 1024.219482 C 318.984192 1022.373596 319.203156 1020.877747 320.118652 1019.731934 L 334.15744 997.579346 C 334.596832 996.935425 335.094666 996.371033 335.65097 995.88623 C 336.207275 995.401489 336.769409 995.085571 337.337372 994.93866 C 338.402313 994.663086 339.515015 994.79187 340.675507 995.324829 C 341.836029 995.857788 343.125946 996.451965 344.545349 997.107361 C 345.964783 997.762695 347.556427 998.278809 349.320404 998.65564 C 351.084351 999.032471 353.066742 998.936218 355.267639 998.366821 C 356.900543 997.944336 358.415253 997.211548 359.811859 996.168457 C 361.208466 995.125427 362.354675 993.919861 363.25061 992.55188 C 364.146515 991.183838 364.761139 989.680298 365.094543 988.041199 C 365.427948 986.4021 365.383423 984.766113 364.960938 983.133179 Z"/>
        <filter id="filter2" x="0" y="0" width="1399" height="1093" filterUnits="userSpaceOnUse" primitiveUnits="userSpaceOnUse" color-interpolation-filters="sRGB">
            <feGaussianBlur stdDeviation="34"/>
            <feOffset dx="-0" dy="2" result="offsetblur"/>
            <feFlood flood-color="#000000" flood-opacity="0.5"/>
            <feComposite in2="offsetblur" operator="in"/>
            <feMerge>
                <feMergeNode/>
                <feMergeNode in="SourceGraphic"/>
            </feMerge>
        </filter>
        <path id="Rectangle" fill="#ffffff" fill-opacity="0.406105" fill-rule="evenodd" stroke="none" filter="url(#filter2)" d="M 176.450684 792.980042 L 1193.416016 535.720276 L 1070.549316 50.02002 L 53.584015 307.279724 Z"/>
        <path id="OUR" fill="#52473b" fill-rule="evenodd" stroke="none" d="M 760.646851 295.061829 C 760.116028 292.828003 760.27771 290.907288 761.131836 289.299561 C 761.985962 287.691895 763.583069 286.609985 765.923218 286.053894 L 868.996948 261.560242 C 879.953247 258.956665 890.704529 258.565063 901.251221 260.385437 C 911.797852 262.205811 921.468628 265.779358 930.263855 271.106323 C 939.059021 276.433289 946.622742 283.317017 952.955078 291.757751 C 959.287415 300.198486 963.717407 309.737244 966.245178 320.374451 C 967.963989 327.607727 968.61676 334.729004 968.20343 341.738525 C 967.790161 348.747986 966.504517 355.515137 964.346619 362.040222 C 962.18866 368.565247 959.239563 374.716309 955.499207 380.493591 C 951.758911 386.270935 947.408508 391.490723 942.448059 396.153198 L 1001.80542 463.634338 C 1002.903931 464.946655 1004.27832 466.474243 1005.928711 468.217224 C 1007.579041 469.960266 1008.581177 471.576355 1008.935059 473.065552 C 1009.339478 474.767517 1009.090698 476.203247 1008.18866 477.372803 C 1007.28656 478.542358 1005.878235 479.354675 1003.963562 479.809631 L 949.235535 492.814819 C 947.427246 493.244507 945.678711 493.098145 943.989929 492.375671 C 942.301086 491.653198 941.029114 490.438354 940.17395 488.73114 L 884.074097 425.027222 L 858.225891 431.169617 L 875.325928 503.129761 C 876.412842 507.703735 874.509766 510.572021 869.616699 511.734802 L 822.228271 522.99585 C 820.100891 523.501343 818.266235 523.347351 816.724365 522.533752 C 815.182495 521.720215 814.133545 520.143372 813.577393 517.803162 Z M 902.414551 336.216919 C 901.656189 333.025757 900.312866 329.973694 898.38446 327.060608 C 896.456055 324.147522 894.112183 321.614136 891.352783 319.460388 C 888.593445 317.306641 885.509766 315.679504 882.101624 314.578918 C 878.693481 313.478394 875.117981 313.091919 871.374939 313.419495 C 868.346008 313.91449 865.509521 314.391846 862.865479 314.851624 C 860.221497 315.31134 857.357117 315.907715 854.272339 316.640747 L 832.253479 321.873169 L 846.16864 380.430542 L 875.5271 373.453979 C 877.441772 372.999023 879.131042 372.541382 880.594971 372.081116 C 882.058899 371.62085 883.669739 371.069519 885.42749 370.427063 C 889.049377 369.116882 892.140991 367.230347 894.702271 364.767456 C 897.263611 362.304565 899.245178 359.529968 900.646912 356.443604 C 902.048706 353.357178 902.895935 350.065491 903.188721 346.56842 C 903.481445 343.071289 903.223389 339.62085 902.414551 336.216919 Z M 606.396301 474.324341 C 608.266846 482.195801 610.943298 488.61145 614.425659 493.571411 C 617.908081 498.531372 621.841736 502.316467 626.226685 504.926758 C 630.611633 507.537048 635.360413 509.077515 640.473145 509.548279 C 645.585815 510.018982 650.695007 509.647705 655.800842 508.434387 C 661.119446 507.170532 665.924255 505.045471 670.215454 502.059082 C 674.506653 499.072754 677.997864 495.32135 680.68927 490.804688 C 683.380676 486.288086 685.118896 481.070923 685.903992 475.153076 C 686.689087 469.235168 686.247498 462.766052 684.579163 455.745544 L 652.426514 320.441345 C 651.971558 318.526672 652.244568 316.71991 653.245605 315.021118 C 654.246643 313.322327 655.864014 312.20752 658.097839 311.676697 L 704.688416 300.605286 C 707.13501 300.023865 709.220276 300.286926 710.944336 301.394348 C 712.668396 302.501709 713.7453 303.959595 714.175049 305.767883 L 746.138123 440.274292 C 750.561646 458.889404 751.53833 475.176697 749.068176 489.136719 C 746.598022 503.096741 741.652161 515.032104 734.230469 524.943176 C 726.808716 534.854248 717.406311 542.93219 706.02301 549.177124 C 694.639648 555.422119 682.246765 560.137024 668.843933 563.32196 C 655.441101 566.506897 642.212708 567.824219 629.158447 567.274048 C 616.104187 566.723877 604.021118 563.639221 592.908875 558.020081 C 581.796631 552.400879 572.003906 543.939758 563.530396 532.636475 C 555.056885 521.333191 548.646362 506.533813 544.298706 488.237915 L 512.335571 353.731445 C 511.905884 351.923157 512.132019 350.15564 513.014038 348.428955 C 513.896118 346.702271 515.241272 345.624023 517.049561 345.194336 L 564.916626 333.81958 C 566.512207 333.44043 568.34552 333.707092 570.416626 334.61969 C 572.487732 335.532227 573.763367 336.999023 574.243652 339.020081 Z M 318.774872 517.55603 C 320.872894 526.384888 324.321045 534.274658 329.119446 541.225647 C 333.917816 548.176697 339.678986 553.859253 346.403076 558.273682 C 353.127197 562.688049 360.544464 565.645264 368.65506 567.145447 C 376.765686 568.645691 385.235291 568.346741 394.064148 566.248718 C 402.893005 564.150757 410.618256 560.601196 417.240112 555.600098 C 423.862 550.598999 429.182587 544.614807 433.202026 537.6474 C 437.221436 530.680054 439.810333 523.013184 440.968781 514.646667 C 442.127228 506.28009 441.65744 497.682556 439.559418 488.853699 C 437.486664 480.131226 434.04483 472.268005 429.233826 465.263794 C 424.422791 458.259644 418.649017 452.523804 411.912262 448.056274 C 405.175507 443.588684 397.719025 440.584595 389.542572 439.043823 C 381.36615 437.503052 372.863617 437.781738 364.03476 439.879761 C 355.205902 441.977783 347.51358 445.547546 340.95752 450.589233 C 334.401459 455.630859 329.120117 461.661926 325.113342 468.682495 C 321.106537 475.703064 318.530273 483.423096 317.38446 491.842834 C 316.238678 500.262573 316.702148 508.833496 318.774872 517.55603 Z M 257.223846 532.351074 C 254.544449 521.075684 253.408524 509.911255 253.81601 498.857544 C 254.223511 487.803772 256.00592 477.097778 259.163269 466.739136 C 262.320648 456.380432 266.710999 446.599854 272.334412 437.397095 C 277.957825 428.194275 284.664642 419.885986 292.454987 412.472046 C 300.245361 405.058044 308.978485 398.65625 318.654602 393.266479 C 328.330719 387.87677 338.806335 383.842224 350.081726 381.162842 C 361.250763 378.508667 372.394897 377.40564 383.514465 377.853699 C 394.634033 378.301758 405.340057 380.084167 415.632874 383.200989 C 425.92572 386.31781 435.679718 390.714478 444.895142 396.391052 C 454.110596 402.067688 462.431488 408.827637 469.858093 416.671204 C 477.284729 424.514771 483.69281 433.274475 489.082581 442.950623 C 494.472351 452.626709 498.506866 463.102295 501.186279 474.377747 C 503.865662 485.653137 504.975006 496.823853 504.514343 507.890259 C 504.05365 518.956604 502.258606 529.609436 499.12915 539.849121 C 495.999695 550.088745 491.590393 559.789551 485.901154 568.951782 C 480.211914 578.114014 473.478516 586.428589 465.700775 593.895813 C 457.923065 601.362976 449.163361 607.771057 439.421417 613.120239 C 429.679474 618.469482 419.224121 622.471069 408.055084 625.125244 C 396.779694 627.804626 385.615295 628.940552 374.561554 628.533081 C 363.507813 628.12561 352.828369 626.336853 342.522888 623.16687 C 332.217438 619.996826 322.490051 615.593872 313.340424 609.957764 C 304.190796 604.321777 295.888855 597.641541 288.434326 589.916992 C 280.979797 582.192444 274.584351 573.485901 269.247772 563.79718 C 263.911194 554.108398 259.903259 543.626465 257.223846 532.351074 Z"/>
    </g>
</svg>
